<?xml version="1.0" encoding="utf-8"?>

<!-- Uploaded to: SVG Repo, www.svgrepo.com, Generator: SVG Repo Mixer Tools -->
<svg version="1.1" id="Icons" xmlns="http://www.w3.org/2000/svg" xmlns:xlink="http://www.w3.org/1999/xlink" 
	 viewBox="0 0 32 32" xml:space="preserve">
<style type="text/css">
    .st0{fill:none;stroke:#FF8A50;stroke-width:2;stroke-linecap:round;stroke-linejoin:round;stroke-miterlimit:10;}
</style>
<path d="M17,18c-1.2,0-2.3,0.3-3.3,1H9.3c-1-0.7-2.1-1-3.3-1c-3.3,0-6,2.7-6,6s2.7,6,6,6c1.2,0,2.3-0.3,3.3-1h4.4c1,0.7,2.1,1,3.3,1
	c3.3,0,6-2.7,6-6S20.3,18,17,18z M8,25H7v1c0,0.6-0.4,1-1,1s-1-0.4-1-1v-1H4c-0.6,0-1-0.4-1-1s0.4-1,1-1h1v-1c0-0.6,0.4-1,1-1
	s1,0.4,1,1v1h1c0.6,0,1,0.4,1,1S8.6,25,8,25z M16.9,25.4c-0.1,0.1-0.1,0.2-0.2,0.3c-0.1,0.1-0.2,0.2-0.3,0.2S16.1,26,16,26
	c-0.1,0-0.3,0-0.4-0.1c-0.1,0-0.2-0.1-0.3-0.2C15.1,25.5,15,25.3,15,25c0-0.1,0-0.3,0.1-0.4c0.1-0.1,0.1-0.2,0.2-0.3
	c0.3-0.3,0.7-0.4,1.1-0.2c0.1,0,0.2,0.1,0.3,0.2c0.2,0.2,0.3,0.5,0.3,0.7C17,25.1,17,25.3,16.9,25.4z M18.9,23.4
	c-0.1,0.1-0.1,0.2-0.2,0.3C18.5,23.9,18.3,24,18,24c-0.1,0-0.3,0-0.4-0.1c-0.1,0-0.2-0.1-0.3-0.2c-0.1-0.1-0.2-0.2-0.2-0.3
	c0-0.1-0.1-0.3-0.1-0.4c0-0.3,0.1-0.5,0.3-0.7c0.1-0.1,0.2-0.2,0.3-0.2C17.8,22,18,22,18.2,22c0.1,0,0.1,0,0.2,0.1
	c0.1,0,0.1,0,0.2,0.1c0,0,0.1,0.1,0.1,0.1c0.2,0.2,0.3,0.5,0.3,0.7C19,23.1,19,23.3,18.9,23.4z"/>
<path d="M29,2h-3c-0.2,0-0.4,0.1-0.6,0.2l-4.3,3.4C20.4,6.2,20,7,20,8v8.6c2.9,1.2,5,4.1,5,7.4c0,1.6-0.5,3.1-1.3,4.4l1.7,1.4
	c0.2,0.1,0.4,0.2,0.6,0.2h3c1.7,0,3-1.3,3-3V5C32,3.3,30.7,2,29,2z M28.9,25.4c-0.1,0.1-0.1,0.2-0.2,0.3C28.5,25.9,28.3,26,28,26
	c-0.1,0-0.3,0-0.4-0.1c-0.1,0-0.2-0.1-0.3-0.2C27.1,25.5,27,25.3,27,25c0-0.1,0-0.3,0.1-0.4c0.1-0.1,0.1-0.2,0.2-0.3
	c0.3-0.3,0.7-0.4,1.1-0.2c0.1,0,0.2,0.1,0.3,0.2c0.2,0.2,0.3,0.5,0.3,0.7C29,25.1,29,25.3,28.9,25.4z M29,15c0,0.6-0.4,1-1,1
	s-1-0.4-1-1V6c0-0.6,0.4-1,1-1s1,0.4,1,1V15z"/>
</svg>