<?xml version="1.0" encoding="iso-8859-1"?>
<!-- Uploaded to: SVG Repo, www.svgrepo.com, Generator: SVG Repo Mixer Tools -->
<!DOCTYPE svg PUBLIC "-//W3C//DTD SVG 1.1//EN" "http://www.w3.org/Graphics/SVG/1.1/DTD/svg11.dtd">
<svg fill="#000000" version="1.1" id="Capa_1" xmlns="http://www.w3.org/2000/svg" xmlns:xlink="http://www.w3.org/1999/xlink" 
	 width="800px" height="800px" viewBox="0 0 47.001 47.001"
	 xml:space="preserve">
<g>
	<g>
		<path d="M40.063,1.628h-7.883V1.253C32.181,0.561,31.619,0,30.926,0H20.572c-0.393,0-3.843,0.202-3.843,7.181
			s3.45,7.182,3.843,7.182h10.354c0.693,0,1.255-0.561,1.255-1.254v-0.374h0.809v9.675c0,0.98,0.568,1.82,1.388,2.232V45.12
			c0,1.038,0.844,1.88,1.881,1.88s1.881-0.842,1.881-1.88V24.645c0.656-0.328,1.16-0.936,1.326-1.69l3.047-13.706
			c0.039-0.179,0.06-0.361,0.06-0.544V4.135C42.57,2.75,41.449,1.628,40.063,1.628z M19.235,7.181c0-3.626,1.031-4.606,1.337-4.674
			h8.463c-0.377,0.439-0.615,1.004-0.615,1.628v6.093c0,0.625,0.238,1.189,0.617,1.628l-8.373,0.005
			C20.268,11.788,19.235,10.808,19.235,7.181z"/>
		<path d="M27.766,15.712H19.88v-0.376c0-0.692-0.561-1.253-1.254-1.253H8.272c-0.393,0-3.843,0.202-3.843,7.182
			s3.45,7.182,3.843,7.182h10.354c0.693,0,1.254-0.562,1.254-1.254v-0.375h0.809v9.676c0,0.98,0.568,1.82,1.388,2.232v6.395
			c0,1.038,0.843,1.88,1.88,1.88c1.039,0,1.88-0.842,1.88-1.88v-6.393c0.658-0.328,1.16-0.936,1.328-1.69l3.047-13.706
			c0.039-0.179,0.06-0.361,0.06-0.543V18.22C30.271,16.834,29.148,15.712,27.766,15.712z M6.938,21.265
			c0-3.627,1.03-4.607,1.336-4.675h8.463c-0.378,0.439-0.616,1.003-0.616,1.629v6.094c0,0.625,0.238,1.188,0.616,1.627l-8.371,0.006
			C7.967,25.872,6.938,24.893,6.938,21.265z"/>
	</g>
</g>
</svg>